<svg width="37" height="25" viewBox="0 0 37 25" fill="none" xmlns="http://www.w3.org/2000/svg">
<path d="M15.375 19.7917C10.1666 21.3542 10.1666 17.1875 8.08331 16.6667M22.6666 22.9167V18.8854C22.7057 18.3887 22.6386 17.8894 22.4698 17.4206C22.301 16.9519 22.0343 16.5244 21.6875 16.1667C24.9583 15.8021 28.3958 14.5625 28.3958 8.87501C28.3955 7.42066 27.8361 6.02209 26.8333 4.96876C27.3082 3.69637 27.2746 2.28995 26.7396 1.04167C26.7396 1.04167 25.5104 0.67709 22.6666 2.58334C20.2792 1.93628 17.7625 1.93628 15.375 2.58334C12.5312 0.67709 11.3021 1.04167 11.3021 1.04167C10.767 2.28995 10.7335 3.69637 11.2083 4.96876C10.198 6.0299 9.63802 7.44111 9.64581 8.90626C9.64581 14.5521 13.0833 15.7917 16.3541 16.1979C16.0114 16.5521 15.7471 16.9744 15.5784 17.4374C15.4097 17.9005 15.3404 18.3938 15.375 18.8854V22.9167" stroke="white" stroke-width="2" stroke-linecap="round" stroke-linejoin="round"/>
</svg>
